# xmcd CD database file
#
# Track frame offsets:
#	150
#	20182
#	33877
#	53510
#	74350
#	81477
#	102872
#	122440
#	144620
#	163842
#	183640
#	203262
#
# Disc length: 2974 seconds
#
# Revision: 0
# Processed by: cddbd v1.5PL3 Copyright (c) Steve Scherf et al.
# Submitted via: CDex 1.50
#
DISCID=a10b9c0c
DTITLE=男闘呼組 - 参
DYEAR=1900
DGENRE=Rock
TTITLE0=BREAK THE LAW
TTITLE1=自分勝手
TTITLE2=狂おしく、むなしく
TTITLE3=DON'T SLEEP
TTITLE4=STAY WITH ME
TTITLE5=OVER THE RAIN
TTITLE6=BACK IN THE CITY
TTITLE7=NEVER SAY GOODBYE
TTITLE8=CROSS TO YOU
TTITLE9=REAL, THE
TTITLE10=REIKO
TTITLE11=雨に抱かれて
EXTD=
EXTT0=
EXTT1=
EXTT2=
EXTT3=
EXTT4=
EXTT5=
EXTT6=
EXTT7=
EXTT8=
EXTT9=
EXTT10=
EXTT11=
PLAYORDER=
